<svg width="144" height="144" xmlns="http://www.w3.org/2000/svg">
 <!-- Created with Method Draw - http://github.com/duopixel/Method-Draw/ -->

 <g>
  <title>background</title>
  <g display="none" id="canvasGrid">
   <rect fill="url(#gridpattern)" stroke-width="0" y="0" x="0" height="100%" width="100%" id="svg_1"/>
  </g>
 </g>
 <g>
  <title>Layer 1</title>
  <path id="svg_2" d="m26.80395,14.05886c0.19607,0 0.19607,122.74503 0.19607,122.74503c0,0 11.56863,-0.19608 11.56863,-0.19608c0,0 0.19607,-51.96075 0.19607,-51.96075c0,0 68.23526,0.39215 68.09796,0.25485c0.1373,0.1373 0.33338,51.90198 0.33338,51.90198c0,0 11.56862,0.19608 11.56862,0.19608c0,0 0,-93.66409 -0.19608,-93.52937c-0.14094,-0.55756 -11.7647,-0.19607 -11.90199,-0.33337c0.13729,0.1373 -0.05879,29.74513 -0.05879,29.74513c0,0 -67.8431,-0.19608 -67.8431,-0.19608c0,0 0.19608,-51.76468 0.19608,-51.76468c0,0 79.99996,0 79.99996,0c0,0 -0.19608,-11.96078 -0.19608,-11.96078c0,0 -85.88231,0.19608 -85.88231,0.19608c0,0 -6.2745,4.90196 -6.07842,4.90196z" stroke-width="1.5" stroke="#fff" fill="#fff"/>
 </g>
 <g>
  <title>background</title>
  <rect fill="none" id="canvas_background" height="146" width="146" y="-1" x="-1"/>
 </g>
</svg>